<?xml version="1.0" standalone="no"?>
<!DOCTYPE svg PUBLIC "-//W3C//DTD SVG 20010904//EN"
 "http://www.w3.org/TR/2001/REC-SVG-20010904/DTD/svg10.dtd">
<svg version="1.0" xmlns="http://www.w3.org/2000/svg"
 width="640.000000pt" height="162.000000pt" viewBox="0 0 640.000000 162.000000"
 preserveAspectRatio="xMidYMid meet">

<g transform="translate(0.000000,162.000000) scale(0.100000,-0.100000)"
fill="#000000" stroke="none">
<path d="M365 1610 c-3 -5 -48 -112 -99 -237 -51 -126 -133 -322 -181 -436
-106 -250 -109 -236 49 -244 l106 -6 0 -36 c0 -20 9 -168 20 -330 20 -309 24
-330 67 -317 13 4 32 39 61 114 23 59 104 255 181 437 100 236 137 334 131
346 -10 18 -71 29 -166 29 -35 0 -64 4 -64 9 0 89 -44 659 -52 668 -12 15 -44
17 -53 3z"/>
<path d="M5843 960 c-123 -18 -195 -85 -197 -184 -1 -91 42 -128 190 -166 40
-11 83 -24 94 -30 27 -15 25 -46 -5 -66 -28 -18 -60 -11 -75 17 -10 17 -22 19
-110 19 -109 0 -110 -1 -89 -57 36 -96 184 -139 336 -99 112 30 163 84 163
174 0 100 -38 136 -188 176 -106 28 -112 31 -112 56 0 30 73 44 84 15 4 -12
26 -15 106 -15 111 0 114 2 84 66 -35 74 -149 112 -281 94z"/>
<path d="M1395 937 c-3 -7 -4 -131 -3 -277 l3 -265 88 -3 87 -3 0 161 c0 90 4
160 9 160 8 0 26 -70 78 -297 5 -22 10 -23 93 -23 76 0 89 3 93 18 3 9 17 73
32 142 15 69 31 129 36 135 5 5 9 -46 9 -120 0 -186 -7 -175 106 -175 l94 0 0
108 c0 59 -3 185 -7 280 l-6 173 -146 -3 -146 -3 -30 -147 c-16 -82 -32 -148
-36 -148 -4 0 -19 65 -35 144 -33 169 -16 156 -201 156 -82 0 -115 -3 -118
-13z"/>
<path d="M2307 943 c-8 -13 -177 -533 -177 -543 0 -6 44 -10 104 -10 l103 0
13 45 13 46 76 -3 c82 -3 77 1 97 -75 2 -10 34 -13 115 -13 85 0 110 3 106 13
-2 6 -41 127 -87 267 -45 140 -87 261 -92 268 -12 13 -263 18 -271 5z m170
-214 c33 -144 34 -139 -37 -139 -39 0 -60 4 -60 12 0 38 54 228 63 225 7 -2
22 -46 34 -98z"/>
<path d="M2903 943 l-163 -3 0 -70 0 -69 63 -3 62 -3 0 -200 0 -200 113 -3
112 -3 0 206 0 205 65 0 66 0 -3 73 -3 72 -75 0 c-41 1 -148 -1 -237 -2z"/>
<path d="M3260 669 l0 -280 210 4 c115 2 212 6 215 9 4 3 3 33 -1 67 l-7 61
-103 0 -104 0 0 45 0 45 95 0 95 0 0 55 0 55 -94 0 c-52 0 -98 4 -101 10 -3 5
-3 25 1 45 l6 35 104 0 104 0 0 65 0 66 -210 -1 -210 -1 0 -280z"/>
<path d="M3737 943 c-4 -3 -7 -129 -7 -280 l0 -274 108 3 107 3 3 98 3 99 27
-7 c39 -9 42 -15 53 -96 6 -41 16 -80 24 -88 10 -10 34 -11 109 -6 83 6 96 10
92 24 -3 9 -10 49 -16 89 -12 88 -31 127 -71 151 -28 17 -29 20 -12 25 11 3
33 20 49 37 25 27 29 38 29 89 0 53 -3 63 -30 90 -21 21 -46 33 -84 40 -59 11
-374 14 -384 3z m280 -114 c15 -5 31 -16 35 -22 25 -40 -13 -93 -72 -99 l-35
-3 -3 54 c-2 29 -1 60 2 67 6 17 34 18 73 3z"/>
<path d="M4298 690 c-1 -143 -2 -268 -2 -277 -1 -16 11 -18 112 -18 61 0 112
3 112 8 0 4 0 129 0 277 l0 270 -110 0 -110 0 -2 -260z"/>
<path d="M4725 938 c-53 -163 -175 -540 -175 -544 0 -2 48 -3 107 -2 l106 3
11 40 12 40 77 3 77 3 11 -46 11 -45 109 0 109 0 -6 28 c-4 15 -44 140 -88
277 l-82 250 -137 3 c-105 2 -138 0 -142 -10z m173 -205 c33 -146 34 -143 -38
-143 -33 0 -60 2 -60 5 0 12 51 218 56 226 13 22 22 3 42 -88z"/>
<path d="M5205 928 c-3 -13 -4 -138 -3 -278 l3 -255 208 -3 207 -2 0 74 0 75
-97 3 -98 3 -3 195 c-2 140 -6 196 -15 202 -6 4 -54 8 -104 8 -88 0 -93 -1
-98 -22z"/>
<path d="M6210 470 l0 -81 93 3 92 3 3 45 c2 24 1 59 -3 77 l-6 33 -89 0 -90
0 0 -80z"/>
</g>
</svg>
